<svg width="84" height="83" viewBox="0 0 84 83" fill="none" xmlns="http://www.w3.org/2000/svg">
<g id="Frame 5">
<path id="Vector" d="M42 82.7077C65.196 82.7077 84 64.1929 84 41.3538C84 18.5147 65.196 0 42 0C18.804 0 0 18.5147 0 41.3538C0 64.1929 18.804 82.7077 42 82.7077Z" fill="#DA0000"/>
<path id="Vector_2" d="M68.824 28.0838C68.5067 26.9074 67.8792 25.8344 67.005 24.9737C66.1308 24.1129 65.0411 23.495 63.8462 23.1826C59.5093 22.0554 42 22.0554 42 22.0554C42 22.0554 24.4844 22.0554 20.1164 23.2071C18.9273 23.5243 17.844 24.1442 16.9756 25.0046C16.1072 25.8651 15.4844 26.9355 15.1698 28.1083C14 32.3969 14 41.3783 14 41.3783C14 41.3783 14 50.3475 15.1698 54.6483C15.4844 55.8211 16.1072 56.8916 16.9756 57.752C17.844 58.6124 18.9273 59.2324 20.1164 59.5495C24.472 60.7013 42 60.7013 42 60.7013C42 60.7013 59.5093 60.7013 63.8773 59.5495C65.0722 59.2371 66.1619 58.6192 67.0361 57.7585C67.9103 56.8978 68.5378 55.8248 68.8551 54.6483C70.0311 50.3598 70.0311 41.3783 70.0311 41.3783C70.0311 41.3783 70 32.3846 68.824 28.0838ZM36.4 49.6246V33.0831L50.9413 41.3538L36.4 49.6246Z" fill="white"/>
</g>
</svg>
